<?xml version="1.0" encoding="UTF-8"?>
<svg version="1.1" xmlns="http://www.w3.org/2000/svg" width="340" height="336">
<path d="M0 0 C0.80002441 0.15065918 1.60004883 0.30131836 2.42431641 0.45654297 C16.32471898 3.115062 29.09265245 7.22196089 42 13 C42.64372559 13.28069336 43.28745117 13.56138672 43.95068359 13.85058594 C58.16815288 20.11409222 70.81025374 29.42905206 81.99609375 40.13671875 C83.86501863 42.04981936 83.86501863 42.04981936 86 43 C86 43.66 86 44.32 86 45 C86.99 45.33 87.98 45.66 89 46 C91.77163887 48.97001793 94.22616463 52.19427113 96.73095703 55.39111328 C97.96890533 56.96057832 99.232233 58.50991931 100.49609375 60.05859375 C127.37156974 93.35248551 139.56297928 138.09636732 135.5390625 180.4765625 C132.73537781 205.26610367 125.22120079 228.81643479 112 250 C111.44554199 250.90032959 111.44554199 250.90032959 110.87988281 251.81884766 C88.37446764 288.05428114 52.1018647 314.69310249 10.484375 324.63671875 C-33.36473749 334.33048337 -80.37300893 328.86664943 -119 305 C-123.82137916 301.87244406 -128.43367664 298.48601182 -133 295 C-133.91007812 294.31550781 -134.82015625 293.63101562 -135.7578125 292.92578125 C-150.91883454 281.04587592 -162.87911342 267.32797784 -173 251 C-173.40186523 250.35256836 -173.80373047 249.70513672 -174.21777344 249.03808594 C-196.86458439 212.03181231 -203.71957101 167.10685549 -193.70703125 124.76855469 C-183.02992387 82.95971572 -157.88789191 45.90947546 -121 23 C-85.18694877 1.87914893 -41.33671728 -8.25006583 0 0 Z M-64 26 C-65.81757813 26.38285156 -65.81757813 26.38285156 -67.671875 26.7734375 C-82.96367514 30.35027487 -98.22571714 36.85720224 -111 46 C-112.24910156 46.82757813 -112.24910156 46.82757813 -113.5234375 47.671875 C-119.86249759 51.92392146 -125.45906041 56.76194135 -131 62 C-131.73992187 62.67546875 -132.47984375 63.3509375 -133.2421875 64.046875 C-156.52960464 86.09119158 -171.61506922 120.72127998 -173.12646484 152.67358398 C-173.66370375 173.05615449 -171.59612112 191.69289868 -165 211 C-164.78504883 211.63357422 -164.57009766 212.26714844 -164.34863281 212.91992188 C-151.85754145 248.80613651 -123.47186572 275.97902483 -89.78125 292.33984375 C-56.31781882 307.47090367 -16.49432753 309.77806605 18.03710938 296.77001953 C34.3745318 290.36103566 48.70372856 282.63423751 62 271 C62.99 270.1440625 63.98 269.288125 65 268.40625 C91.78267593 244.85596599 108.10295268 210.47368521 111 175 C112.02713759 154.25261543 109.72637597 134.65271587 103 115 C102.38898438 113.1746875 102.38898438 113.1746875 101.765625 111.3125 C89.05179883 76.61123328 61.11630838 49.4339527 28 34 C9.645484 25.77699971 -9.3795355 22.76954282 -29.375 22.75 C-30.08864716 22.74899292 -30.80229431 22.74798584 -31.53756714 22.74694824 C-42.63395337 22.75753506 -53.17836472 23.43932499 -64 26 Z " fill="#FDC200" transform="translate(201,4)"/>
<path d="M0 0 C1.03769531 -0.01160156 2.07539062 -0.02320312 3.14453125 -0.03515625 C12.92091894 0.00136824 22.1651191 1.71358529 30.875 6.3125 C32.34839844 7.08787109 32.34839844 7.08787109 33.8515625 7.87890625 C36.8576052 9.57701002 39.70208453 11.35428327 42.5 13.375 C42.3125 16.125 42.3125 16.125 41.5 19.375 C39.8603279 20.74139342 38.18889872 22.0699419 36.5 23.375 C35.19340608 25.42764292 34.0277882 27.50900772 32.90625 29.66796875 C31.5 31.375 31.5 31.375 29.16796875 32.2890625 C25.7245077 32.39997925 24.20913197 31.38947467 21.3125 29.5625 C11.14430801 23.719179 -0.40193308 22.82054348 -11.8984375 25.02734375 C-22.91200438 28.075041 -32.65754391 33.26535755 -38.5 43.375 C-44.09968675 54.06531107 -44.0318702 68.17118913 -41.8515625 79.84765625 C-38.39600972 90.11094336 -31.74055268 98.73466265 -22.5 104.375 C-19.23466239 105.9500452 -15.95083014 107.26644317 -12.5 108.375 C-11.90703125 108.56835938 -11.3140625 108.76171875 -10.703125 108.9609375 C0.10121739 110.99154086 11.06754564 109.25291844 21.5 106.375 C21.5 99.115 21.5 91.855 21.5 84.375 C13.25 84.375 5 84.375 -3.5 84.375 C-3.83 76.785 -4.16 69.195 -4.5 61.375 C20.745 60.88 20.745 60.88 46.5 60.375 C46.81581804 67.65285137 47.11570585 74.90567209 47.27625275 82.18444061 C47.35518048 85.57363919 47.46032202 88.95712206 47.6315918 92.34301758 C48.65866621 114.22574417 48.65866621 114.22574417 45.06692505 119.46569824 C41.07779389 123.12211138 36.57987 124.72469856 31.5 126.375 C29.67233782 127.30409095 27.85547146 128.25560955 26.0625 129.25 C10.38821371 135.9908761 -8.55638342 136.51476364 -24.53466797 130.625 C-41.51763271 123.6526638 -54.15831388 111.33059477 -61.8125 94.5625 C-68.89201211 76.85407462 -70.11966567 57.67545004 -63.05859375 39.70703125 C-55.11993002 22.81664924 -42.1725903 9.77919166 -24.5 3.375 C-16.2667904 0.81557949 -8.59842723 -0.09613148 0 0 Z " fill="#FDC300" transform="translate(124.5,101.625)"/>
<path d="M0 0 C5.60096412 -0.07495628 11.20162711 -0.1289776 16.80297852 -0.16479492 C18.70276993 -0.17974885 20.60252764 -0.20011943 22.50219727 -0.22631836 C41.03134308 -0.47519548 56.97966015 1.03866394 71.3515625 14.21875 C83.80544271 27.6760234 88.88846588 41.83142309 88.4296875 59.87890625 C87.65725826 72.79670587 81.0327844 83.0913302 72 92 C62.04456387 100.78101989 48.36165265 104.19148457 35.375 104.125 C34.2303125 104.13080078 34.2303125 104.13080078 33.0625 104.13671875 C29.78648638 104.13097136 27.12862324 104.04287441 24 103 C24 115.21 24 127.42 24 140 C16.41 140 8.82 140 1 140 C-0.125 128.75 -0.125 128.75 -0.12025452 123.8621521 C-0.12162918 122.75456543 -0.12300385 121.64697876 -0.12442017 120.50582886 C-0.11902725 118.73636398 -0.11902725 118.73636398 -0.11352539 116.93115234 C-0.11367142 115.66172791 -0.11381744 114.39230347 -0.1139679 113.08441162 C-0.11425253 109.63468609 -0.10841023 106.18499597 -0.10139394 102.73527861 C-0.09510438 99.11849368 -0.0945522 95.50170777 -0.09336853 91.88491821 C-0.09027164 85.0499618 -0.08208056 78.21502156 -0.07201904 71.38007224 C-0.06080669 63.59280816 -0.05533459 55.80554327 -0.05032361 48.01827312 C-0.03989642 32.01217274 -0.02232904 16.00608846 0 0 Z M24 23 C24 41.81 24 60.62 24 80 C43.80121219 80.94133251 43.80121219 80.94133251 59.4921875 71.66796875 C65.21924132 65.33260092 65.63355128 59.10341975 65.3828125 50.6953125 C64.54707831 42.6279192 61.38593476 35.20523509 55 30 C44.21185368 23.36806583 36.84514321 23 24 23 Z " fill="#FEC300" transform="translate(193,103)"/>
<path d="M0 0 C3.24168949 1.62084474 5.19736744 2.94198435 7.375 5.8125 C8.91448196 11.20068687 8.16240014 16.18871671 6.02734375 21.265625 C4.21198269 24.33034102 2.36975356 25.01970805 -1 26 C-5.14038437 26.59244524 -9.07542161 26.95834539 -12.90625 25.05078125 C-16.14838686 22.53176805 -18.05597081 19.96492258 -19 16 C-19.46303703 11.75549391 -19.29268248 9.56368478 -17.3125 5.75 C-12.3491462 -0.15236668 -7.48127059 -1.089273 0 0 Z " fill="#FBC203" transform="translate(177,57)"/>
<path d="M0 0 C3.8026029 2.0050088 5.61790841 3.42686262 8 7 C8.64817054 11.34615406 9.00465176 15.9666809 7.01953125 19.984375 C3.6444964 24.17980294 0.85570312 25.79381076 -4.375 26.375 C-9.72476347 25.82157619 -13.552361 23.04976187 -17 19 C-18.18512032 15.3381911 -18.53441697 11.65068437 -17.33984375 7.9609375 C-13.45290173 0.56473204 -7.89698164 -1.27908857 0 0 Z " fill="#FDC200" transform="translate(176,254)"/>
<path d="M0 0 C12.32682252 -0.72196141 20.38855735 1.79232763 29.58520508 9.88793945 C31.07517254 11.23863593 32.53842951 12.61862542 34 14 C34.78503906 14.69222656 35.57007813 15.38445312 36.37890625 16.09765625 C38 18 38 18 38 22 C36.35 21.67 34.7 21.34 33 21 C32.505 19.515 32.505 19.515 32 18 C31.34 18 30.68 18 30 18 C27.45296011 15.52371122 24.9806235 12.98013909 22.5 10.4375 C16.31890344 5.34812958 6.81675646 3.72714014 -1 3 C-0.67 2.01 -0.34 1.02 0 0 Z " fill="#FFCC44" transform="translate(229,107)"/>
<path d="M0 0 C10.23026189 0.56834788 18.66494818 3.82794933 26 11 C25.67 12.65 25.34 14.3 25 16 C22.75 16.75 22.75 16.75 20 17 C17.6875 15.1875 17.6875 15.1875 16 13 C16 12.34 16 11.68 16 11 C15.34 11 14.68 11 14 11 C14 10.34 14 9.68 14 9 C13.45859375 8.87753906 12.9171875 8.75507812 12.359375 8.62890625 C9.58714603 7.88995118 6.94135583 6.93073846 4.25 5.9375 C3.26515625 5.57527344 2.2803125 5.21304688 1.265625 4.83984375 C0.51796875 4.56269531 -0.2296875 4.28554687 -1 4 C-1 1 -1 1 0 0 Z " fill="#FFCC44" transform="translate(136,106)"/>
<path d="M0 0 C0.99 0 1.98 0 3 0 C3 14.19 3 28.38 3 43 C2.01 42.67 1.02 42.34 0 42 C-0.16914327 37.46534937 -0.3295197 32.93049926 -0.48217773 28.39526367 C-0.53517393 26.85611874 -0.59046331 25.31705082 -0.64819336 23.77807617 C-0.94699983 15.77266112 -1.22112519 7.95088182 0 0 Z " fill="#FEC80D" transform="translate(168,162)"/>
<path d="M0 0 C0.99 0 1.98 0 3 0 C2.8125 2.75 2.8125 2.75 2 6 C0.3603279 7.36639342 -1.31110128 8.6949419 -3 10 C-3.87295542 11.37140219 -4.70431357 12.76986879 -5.5 14.1875 C-7.6567623 17.87795993 -7.6567623 17.87795993 -10.8125 19 C-11.534375 19 -12.25625 19 -13 19 C-13.66 17.02 -14.32 15.04 -15 13 C-8.92560175 7.11816193 -8.92560175 7.11816193 -5.0625 6.625 C-4.381875 6.74875 -3.70125 6.8725 -3 7 C-2.690625 6.030625 -2.38125 5.06125 -2.0625 4.0625 C-1 1 -1 1 0 0 Z " fill="#FEC80D" transform="translate(164,115)"/>
<path d="M0 0 C0.99 0.33 1.98 0.66 3 1 C3 2.65 3 4.3 3 6 C4.7325 5.7215625 4.7325 5.7215625 6.5 5.4375 C10.86389648 4.8764276 14.66733065 5.30367814 19 6 C19.33 5.01 19.66 4.02 20 3 C20.66 3.33 21.32 3.66 22 4 C22 5.65 22 7.3 22 9 C14.41 9 6.82 9 -1 9 C-1 1 -1 1 0 0 Z " fill="#FEC80D" transform="translate(195,234)"/>
<path d="M0 0 C2.81592036 2.62171895 2.9913444 3.82688805 3.1875 7.75 C3.125625 8.8225 3.06375 9.895 3 11 C-0.78520613 10.45925627 -2.59177555 8.92427254 -5 6 C-5 5.01 -5 4.02 -5 3 C-7.31 2.67 -9.62 2.34 -12 2 C-11.67 1.01 -11.34 0.02 -11 -1 C-6.62603315 -2.01720159 -3.96226769 -2.24885463 0 0 Z " fill="#FFC607" transform="translate(181,257)"/>
<path d="M0 0 C4.43677521 -0.43497796 6.36663666 -0.47502251 10 2.25 C12 5 12 5 11.8125 7.3125 C11.544375 7.869375 11.27625 8.42625 11 9 C7.88452559 8.32116957 5.14862279 7.25893098 2.25 5.9375 C1.45078125 5.57527344 0.6515625 5.21304688 -0.171875 4.83984375 C-0.77515625 4.56269531 -1.3784375 4.28554687 -2 4 C-1.34 2.68 -0.68 1.36 0 0 Z " fill="#FFCC43" transform="translate(169,60)"/>
<path d="M0 0 C0 1.32 0 2.64 0 4 C-2.73905345 5.36952673 -4.97087332 5.12621361 -8 5 C-8.66 4.67 -9.32 4.34 -10 4 C-9.6875 2.0625 -9.6875 2.0625 -9 0 C-5.52176885 -1.15941038 -3.54104422 -0.70820884 0 0 Z " fill="#FFCC42" transform="translate(132,106)"/>
<path d="M0 0 C3.25 0.125 3.25 0.125 7 1 C9.67041036 4.14971479 11 5.83465342 11 10 C9.0625 9.25 9.0625 9.25 7 8 C6.25 5.875 6.25 5.875 6 4 C3.69 3.67 1.38 3.34 -1 3 C-0.67 2.01 -0.34 1.02 0 0 Z " fill="#FFCC43" transform="translate(170,256)"/>
<path d="M0 0 C2 1.3125 2 1.3125 4 3 C4 3.99 4 4.98 4 6 C2.68 5.34 1.36 4.68 0 4 C0 2.68 0 1.36 0 0 Z " fill="#FEC80D" transform="translate(213,123)"/>
</svg>
