<?xml version="1.0" encoding="UTF-8"?>
<svg version="1.1" xmlns="http://www.w3.org/2000/svg" width="340" height="336">
<path d="M0 0 C0.80002441 0.15065918 1.60004883 0.30131836 2.42431641 0.45654297 C16.32471898 3.115062 29.09265245 7.22196089 42 13 C42.64372559 13.28069336 43.28745117 13.56138672 43.95068359 13.85058594 C58.16815288 20.11409222 70.81025374 29.42905206 81.99609375 40.13671875 C83.86501863 42.04981936 83.86501863 42.04981936 86 43 C86 43.66 86 44.32 86 45 C86.99 45.33 87.98 45.66 89 46 C91.77163887 48.97001793 94.22616463 52.19427113 96.73095703 55.39111328 C97.96890533 56.96057832 99.232233 58.50991931 100.49609375 60.05859375 C127.37156974 93.35248551 139.56297928 138.09636732 135.5390625 180.4765625 C132.73537781 205.26610367 125.22120079 228.81643479 112 250 C111.44554199 250.90032959 111.44554199 250.90032959 110.87988281 251.81884766 C88.37446764 288.05428114 52.1018647 314.69310249 10.484375 324.63671875 C-33.36473749 334.33048337 -80.37300893 328.86664943 -119 305 C-123.82137916 301.87244406 -128.43367664 298.48601182 -133 295 C-133.91007812 294.31550781 -134.82015625 293.63101562 -135.7578125 292.92578125 C-150.91883454 281.04587592 -162.87911342 267.32797784 -173 251 C-173.40186523 250.35256836 -173.80373047 249.70513672 -174.21777344 249.03808594 C-196.86458439 212.03181231 -203.71957101 167.10685549 -193.70703125 124.76855469 C-183.02992387 82.95971572 -157.88789191 45.90947546 -121 23 C-85.18694877 1.87914893 -41.33671728 -8.25006583 0 0 Z M-64 26 C-65.81757813 26.38285156 -65.81757813 26.38285156 -67.671875 26.7734375 C-82.96367514 30.35027487 -98.22571714 36.85720224 -111 46 C-112.24910156 46.82757813 -112.24910156 46.82757813 -113.5234375 47.671875 C-119.86249759 51.92392146 -125.45906041 56.76194135 -131 62 C-131.73992187 62.67546875 -132.47984375 63.3509375 -133.2421875 64.046875 C-156.52960464 86.09119158 -171.61506922 120.72127998 -173.12646484 152.67358398 C-173.66370375 173.05615449 -171.59612112 191.69289868 -165 211 C-164.78504883 211.63357422 -164.57009766 212.26714844 -164.34863281 212.91992188 C-151.85754145 248.80613651 -123.47186572 275.97902483 -89.78125 292.33984375 C-56.31781882 307.47090367 -16.49432753 309.77806605 18.03710938 296.77001953 C34.3745318 290.36103566 48.70372856 282.63423751 62 271 C62.99 270.1440625 63.98 269.288125 65 268.40625 C91.78267593 244.85596599 108.10295268 210.47368521 111 175 C112.02713759 154.25261543 109.72637597 134.65271587 103 115 C102.38898438 113.1746875 102.38898438 113.1746875 101.765625 111.3125 C89.05179883 76.61123328 61.11630838 49.4339527 28 34 C9.645484 25.77699971 -9.3795355 22.76954282 -29.375 22.75 C-30.08864716 22.74899292 -30.80229431 22.74798584 -31.53756714 22.74694824 C-42.63395337 22.75753506 -53.17836472 23.43932499 -64 26 Z " fill="#2A3638" transform="translate(201,4)"/>
<path d="M0 0 C1.03769531 -0.01160156 2.07539062 -0.02320312 3.14453125 -0.03515625 C17.63980677 0.01899795 31.79890528 4.26841054 42.5 14.375 C41.25 16.875 41.25 16.875 39.5 19.375 C38.18 19.375 36.86 19.375 35.5 19.375 C35.396875 20.014375 35.29375 20.65375 35.1875 21.3125 C34.960625 21.993125 34.73375 22.67375 34.5 23.375 C33.015 23.87 33.015 23.87 31.5 24.375 C31.21125 25.179375 30.9225 25.98375 30.625 26.8125 C29.5 29.375 29.5 29.375 27.4375 31 C23.33010549 31.52434824 21.39542859 29.77867564 17.9375 27.69140625 C8.31711913 22.49578389 -4.97136244 23.11046906 -15.1875 25.9375 C-25.87749954 29.65292667 -34.18107532 35.12978016 -39.48828125 45.26171875 C-44.28534923 55.74251657 -44.59766287 71.69150344 -40.9375 82.5625 C-35.9027079 93.67073011 -28.56740777 102.06415562 -17.1875 106.75 C-15.63672068 107.32436271 -14.07447905 107.8692088 -12.5 108.375 C-11.90703125 108.56835938 -11.3140625 108.76171875 -10.703125 108.9609375 C0.10121739 110.99154086 11.06754564 109.25291844 21.5 106.375 C21.5 99.115 21.5 91.855 21.5 84.375 C13.25 84.375 5 84.375 -3.5 84.375 C-3.83 76.785 -4.16 69.195 -4.5 61.375 C12 61.375 28.5 61.375 45.5 61.375 C45.665 67.459375 45.83 73.54375 46 79.8125 C46.05220703 81.69380615 46.10441406 83.5751123 46.15820312 85.51342773 C46.24838776 88.78759191 46.31787433 92.06160872 46.37963867 95.33642578 C46.44428348 98.65379424 46.57960412 101.95667813 46.77075195 105.26904297 C47.28562116 116.04386919 47.28562116 116.04386919 45.26904297 119.46069336 C43.46383473 120.94454592 41.85625561 121.76455991 39.6875 122.625 C38.99970459 122.96031738 38.31190918 123.29563477 37.60327148 123.64111328 C36.2236355 124.30432871 34.82984921 124.9389932 33.42285156 125.54199219 C31.78365648 126.25211581 30.19307074 127.0727373 28.6171875 127.9140625 C13.84895861 135.63689779 -4.66049706 136.32028812 -20.51611328 132 C-36.74396179 126.88760864 -49.8258129 115.96781588 -58.5 101.375 C-67.9853765 83.05245041 -70.40356412 63.27064137 -64.5 43.375 C-57.92413519 26.64129523 -46.17332794 13.28598825 -29.9375 5.4375 C-20.0361251 1.49065173 -10.63406525 -0.11889017 0 0 Z " fill="#253235" transform="translate(124.5,101.625)"/>
<path d="M0 0 C5.60096412 -0.07495628 11.20162711 -0.1289776 16.80297852 -0.16479492 C18.70276993 -0.17974885 20.60252764 -0.20011943 22.50219727 -0.22631836 C41.03134308 -0.47519548 56.97966015 1.03866394 71.3515625 14.21875 C83.80544271 27.6760234 88.88846588 41.83142309 88.4296875 59.87890625 C87.65725826 72.79670587 81.0327844 83.0913302 72 92 C62.04456387 100.78101989 48.36165265 104.19148457 35.375 104.125 C34.2303125 104.13080078 34.2303125 104.13080078 33.0625 104.13671875 C29.78648638 104.13097136 27.12862324 104.04287441 24 103 C24.00785522 104.52137573 24.00785522 104.52137573 24.01586914 106.07348633 C24.03396807 109.83617267 24.04544994 113.59885515 24.05493164 117.36157227 C24.05996065 118.99015958 24.06678465 120.61874237 24.07543945 122.24731445 C24.08756769 124.58806472 24.09324263 126.9287553 24.09765625 129.26953125 C24.10281754 129.99775589 24.10797882 130.72598053 24.11329651 131.47627258 C24.11364279 134.59602288 23.99455604 137.01633188 23 140 C19.35283975 139.72358551 15.70767967 139.42632886 12.0625 139.125 C11.02158203 139.04636719 9.98066406 138.96773437 8.90820312 138.88671875 C7.91884766 138.80292969 6.92949219 138.71914062 5.91015625 138.6328125 C4.99371338 138.55949707 4.07727051 138.48618164 3.13305664 138.41064453 C2.42914795 138.27513184 1.72523926 138.13961914 1 138 C-0.3012763 135.39744739 -0.12293904 133.51180181 -0.12025452 130.59640503 C-0.12162918 129.44933075 -0.12300385 128.30225647 -0.12442017 127.12042236 C-0.12082489 125.85591248 -0.11722961 124.59140259 -0.11352539 123.28857422 C-0.11324343 121.9483948 -0.11340143 120.60821522 -0.1139679 119.26803589 C-0.11425551 115.62362899 -0.10836451 111.97925483 -0.10139394 108.33485556 C-0.09515451 104.52850605 -0.09455613 100.72215584 -0.09336853 96.915802 C-0.09025696 89.70517041 -0.0820459 82.49455392 -0.07201904 75.28392899 C-0.06085251 67.07606021 -0.05534609 58.86819071 -0.05032361 50.66031623 C-0.03986316 33.7735354 -0.02226707 16.8867693 0 0 Z M24 23 C24 41.81 24 60.62 24 80 C43.80121219 80.94133251 43.80121219 80.94133251 59.4921875 71.66796875 C65.21924132 65.33260092 65.63355128 59.10341975 65.3828125 50.6953125 C64.54707831 42.6279192 61.38593476 35.20523509 55 30 C44.21185368 23.36806583 36.84514321 23 24 23 Z " fill="#2A383B" transform="translate(193,103)"/>
<path d="M0 0 C3.24168949 1.62084474 5.19736744 2.94198435 7.375 5.8125 C8.91448196 11.20068687 8.16240014 16.18871671 6.02734375 21.265625 C4.21198269 24.33034102 2.36975356 25.01970805 -1 26 C-5.14038437 26.59244524 -9.07542161 26.95834539 -12.90625 25.05078125 C-16.14838686 22.53176805 -18.05597081 19.96492258 -19 16 C-19.46303703 11.75549391 -19.29268248 9.56368478 -17.3125 5.75 C-12.3491462 -0.15236668 -7.48127059 -1.089273 0 0 Z " fill="#253B42" transform="translate(177,57)"/>
<path d="M0 0 C3.8026029 2.0050088 5.61790841 3.42686262 8 7 C8.64817054 11.34615406 9.00465176 15.9666809 7.01953125 19.984375 C3.6444964 24.17980294 0.85570312 25.79381076 -4.375 26.375 C-9.72476347 25.82157619 -13.552361 23.04976187 -17 19 C-18.18512032 15.3381911 -18.53441697 11.65068437 -17.33984375 7.9609375 C-13.45290173 0.56473204 -7.89698164 -1.27908857 0 0 Z " fill="#0F1D24" transform="translate(176,254)"/>
<path d="M0 0 C0.99 0.495 0.99 0.495 2 1 C-1.75 4 -1.75 4 -4 4 C-4.66 5.98 -5.32 7.96 -6 10 C-6.61488281 10.04898437 -7.22976562 10.09796875 -7.86328125 10.1484375 C-8.67152344 10.22320312 -9.47976562 10.29796875 -10.3125 10.375 C-11.11300781 10.44460938 -11.91351563 10.51421875 -12.73828125 10.5859375 C-15.27224441 10.89564426 -15.27224441 10.89564426 -18 13 C-19.175625 13.4640625 -19.175625 13.4640625 -20.375 13.9375 C-23.04490168 14.91836426 -23.04490168 14.91836426 -25.375 16.5625 C-28.57931727 18.31724517 -31.39737091 18.54148357 -35 19 C-38.20651807 20.22345091 -38.20651807 20.22345091 -40 23 C-40.66 23 -41.32 23 -42 23 C-42 23.66 -42 24.32 -42 25 C-41.34 25.33 -40.68 25.66 -40 26 C-41.32 26 -42.64 26 -44 26 C-44.99 24.02 -44.99 24.02 -46 22 C-47.65 22.33 -49.3 22.66 -51 23 C-51 23.66 -51 24.32 -51 25 C-51.66 25 -52.32 25 -53 25 C-53.33 25.66 -53.66 26.32 -54 27 C-54.99 26.01 -54.99 26.01 -56 25 C-55.505 24.505 -55.505 24.505 -55 24 C-56.485 23.505 -56.485 23.505 -58 23 C-58 23.66 -58 24.32 -58 25 C-59.32 25.33 -60.64 25.66 -62 26 C-62 25.34 -62 24.68 -62 24 C-63.051875 24.350625 -64.10375 24.70125 -65.1875 25.0625 C-71.10933004 26.58830486 -76.99794812 25.67706073 -83 25 C-83.33 25.66 -83.66 26.32 -84 27 C-84.33 26.67 -84.66 26.34 -85 26 C-96.62552787 23.23382748 -96.62552787 23.23382748 -108 25 C-108.66 24.67 -109.32 24.34 -110 24 C-110.33 24.66 -110.66 25.32 -111 26 C-111.66 25.67 -112.32 25.34 -113 25 C-113 24.34 -113 23.68 -113 23 C-112.01 23 -111.02 23 -110 23 C-110 22.34 -110 21.68 -110 21 C-110.9075 21.04125 -111.815 21.0825 -112.75 21.125 C-116 21 -116 21 -117.91015625 19.99609375 C-120.36837654 18.82441866 -121.98550106 18.82584715 -124.6875 18.9375 C-126.12413346 18.99157949 -127.56249394 19.02041084 -129 19 C-129.33 18.67 -129.66 18.34 -130 18 C-131.175625 18.0928125 -131.175625 18.0928125 -132.375 18.1875 C-135 18 -135 18 -136.8125 16.125 C-138 14 -138 14 -138 12 C-138.99 11.67 -139.98 11.34 -141 11 C-136.90920539 9.6364018 -135.47049313 10.88716297 -131.5625 12.625 C-98.11785547 26.76190871 -59.35840029 26.63169364 -25.74658203 13.09228516 C-17.3828955 9.63400685 -9.29686609 5.97794001 -1.75 0.93359375 C-1.1725 0.62550781 -0.595 0.31742187 0 0 Z " fill="#0A1216" transform="translate(249,285)"/>
<path d="M0 0 C1.51955563 3.92391582 0.39714873 6.60459286 -0.875 10.5 C-2.8625028 17.03819886 -3.7504425 23.18708026 -4 30 C-4.66 30 -5.32 30 -6 30 C-5.814375 30.969375 -5.62875 31.93875 -5.4375 32.9375 C-4.88870432 36.70284817 -5.24822007 40.10056163 -5.734375 43.85546875 C-6.30337476 48.44930506 -6.60664557 51.09003164 -4 55 C-4.66 55 -5.32 55 -6 55 C-6.33 59.95 -6.66 64.9 -7 70 C-6.01 70.33 -5.02 70.66 -4 71 C-4.99 71.495 -4.99 71.495 -6 72 C-5.67 72.680625 -5.34 73.36125 -5 74.0625 C-4 77 -4 77 -4.0625 80.0625 C-3.98827439 84.73871353 -2.90068469 88.74243809 -1.65625 93.23046875 C-1 96 -1 96 -1 100 C-0.34 100 0.32 100 1 100 C3 102 3 102 4 105 C3.87890625 107.26171875 3.87890625 107.26171875 3.5625 109.6875 C3.46066406 110.49574219 3.35882813 111.30398437 3.25390625 112.13671875 C3.17011719 112.75160156 3.08632812 113.36648437 3 114 C-3.5466217 107.4533783 -4.71395873 93.06244298 -6.25 84.25 C-6.41290527 83.31712158 -6.57581055 82.38424316 -6.74365234 81.4230957 C-11.14026335 54.79813522 -10.04175377 25.31803876 0 0 Z " fill="#0D1418" transform="translate(12,114)"/>
<path d="M0 0 C4.03034912 -0.18319769 6.48257051 0.05934924 10 2 C10.99 2 11.98 2 13 2 C13 2.66 13 3.32 13 4 C13.886875 3.979375 14.77375 3.95875 15.6875 3.9375 C18.62169631 3.99286219 21.15493696 4.3305734 24 5 C24 5.99 24 6.98 24 8 C24.85658203 8.07347656 24.85658203 8.07347656 25.73046875 8.1484375 C31.86991508 8.71455497 37.86469482 9.63673362 43.921875 10.79296875 C47.4291109 11.02886152 49.76370426 10.30323885 53 9 C52.67 9.99 52.34 10.98 52 12 C56.31248547 12.02929984 60.62494493 12.04689903 64.9375 12.0625 C66.14986328 12.07087891 67.36222656 12.07925781 68.61132812 12.08789062 C75.14748569 12.10560379 81.54403217 12.08854601 88 11 C88.33 10.34 88.66 9.68 89 9 C89.66 9 90.32 9 91 9 C91 9.66 91 10.32 91 11 C95.29 10.01 99.58 9.02 104 8 C104 6.35 104 4.7 104 3 C104.99 3.33 105.98 3.66 107 4 C107 4.99 107 5.98 107 7 C108.98 7 110.96 7 113 7 C113 6.34 113 5.68 113 5 C116.96 4.34 120.92 3.68 125 3 C122.23749043 5.76250957 119.03824684 6.38705459 115.375 7.4375 C114.61952881 7.65631836 113.86405762 7.87513672 113.08569336 8.10058594 C75.9011252 18.57336915 35.56910901 16.00671565 0 1 C0 0.67 0 0.34 0 0 Z " fill="#060D10" transform="translate(104,319)"/>
<path d="M0 0 C1.37579827 2.66211372 2.37063561 5.06296616 3 8 C1.5459375 8.61875 1.5459375 8.61875 0.0625 9.25 C-3.11667741 10.62899453 -3.11667741 10.62899453 -3.75 13.0625 C-3.87375 14.0215625 -3.87375 14.0215625 -4 15 C-6.66236872 17.66236872 -9.32882365 18.05939079 -12.90625 19.0234375 C-15.54118613 20.2524189 -15.79538899 21.43453136 -17 24 C-18.134375 24.474375 -19.26875 24.94875 -20.4375 25.4375 C-24.40741801 27.17869211 -25.05115398 28.29719256 -27 32 C-28.485 32.495 -28.485 32.495 -30 33 C-30.66 32.34 -31.32 31.68 -32 31 C-31.17757812 30.31035156 -30.35515625 29.62070312 -29.5078125 28.91015625 C-26.56550073 26.43726809 -23.6345322 23.9513583 -20.70996094 21.45751953 C-19.21818023 20.1859703 -17.72268583 18.91878054 -16.2265625 17.65234375 C-10.0803014 12.31071936 -4.97971187 6.4351349 0 0 Z " fill="#131D21" transform="translate(283,253)"/>
<path d="M0 0 C0.20140476 3.62528568 -0.14223235 5.86501708 -2 9 C-1.01 8.67 -0.02 8.34 1 8 C2.125 11.75 2.125 11.75 1 14 C0.34 14 -0.32 14 -1 14 C-0.01 17.3 0.98 20.6 2 24 C4.31 24 6.62 24 9 24 C10.231394 26.46278801 10.07159196 28.2795055 10 31 C9.34 31.33 8.68 31.66 8 32 C8.33 32.66 8.66 33.32 9 34 C8.34 34 7.68 34 7 34 C7 34.66 7 35.32 7 36 C7.66 36.33 8.32 36.66 9 37 C9.625 39.0625 9.625 39.0625 10 41 C5.88626716 37.3174316 3.52143088 33.67240226 1.375 28.5625 C0.9272522 27.51884277 0.9272522 27.51884277 0.47045898 26.45410156 C-2.75204098 18.64359051 -5 10.4963284 -5 2 C-2 0 -2 0 0 0 Z " fill="#172023" transform="translate(62,169)"/>
<path d="M0 0 C1.8046875 1.5234375 1.8046875 1.5234375 3 3 C2.41992188 2.89300781 1.83984375 2.78601562 1.2421875 2.67578125 C-5.46646681 1.64623529 -8.80359727 2.72887175 -14.375 6.6875 C-16.81385198 10.15817397 -16.27865411 12.82018828 -16 17 C-14.35 17.33 -12.7 17.66 -11 18 C-10.34 19.98 -9.68 21.96 -9 24 C-7.02 24.33 -5.04 24.66 -3 25 C-3 25.33 -3 25.66 -3 26 C-10.76785714 26.66964286 -10.76785714 26.66964286 -14.375 23.8125 C-17.92918254 20.00444727 -18.81532717 17.69283431 -19.375 12.5625 C-18.82897762 7.37528735 -16.73484658 4.53074699 -12.875 1.125 C-8.68766106 -0.51352393 -4.43720661 -0.7671103 0 0 Z M-11 17 C-9 18 -9 18 -9 18 Z " fill="#192129" transform="translate(177,57)"/>
<path d="M0 0 C0.99 0.33 1.98 0.66 3 1 C-6.76745601 9.13954668 -19.14956505 12.17685543 -31.625 12.1875 C-32.388125 12.19974609 -33.15125 12.21199219 -33.9375 12.22460938 C-37.82006322 12.23482665 -39.69678923 12.20214051 -43 10 C-42.34 9.67 -41.68 9.34 -41 9 C-40.67 8.01 -40.34 7.02 -40 6 C-39.01 6.33 -38.02 6.66 -37 7 C-36.67 7.99 -36.34 8.98 -36 10 C-33.36 10 -30.72 10 -28 10 C-28 9.01 -28 8.02 -28 7 C-26.68 6.67 -25.36 6.34 -24 6 C-24 6.66 -24 7.32 -24 8 C-23.34 8 -22.68 8 -22 8 C-21.67 7.34 -21.34 6.68 -21 6 C-20.67 6.99 -20.34 7.98 -20 9 C-19.319375 8.525625 -18.63875 8.05125 -17.9375 7.5625 C-15 6 -15 6 -11.6875 5.625 C-7.48459423 4.91264309 -5.1942607 3.42064475 -1.796875 0.9609375 C-1.20390625 0.64382812 -0.6109375 0.32671875 0 0 Z " fill="#121B20" transform="translate(260,195)"/>
<path d="M0 0 C2.97 0.495 2.97 0.495 6 1 C6 1.66 6 2.32 6 3 C6.99 3 7.98 3 9 3 C8 6 8 6 5.25 7.75 C2.34257643 9.7628317 1.1554786 10.93715064 -0.75 13.75 C-1.4925 14.8225 -2.235 15.895 -3 17 C-3.66 17 -4.32 17 -5 17 C-5.33 17.99 -5.66 18.98 -6 20 C-8.14809171 16.77786243 -8.29386153 15.72224599 -8 12 C-7.67 11.67 -7.34 11.34 -7 11 C-7 10.34 -7 9.68 -7 9 C-5.02 9 -3.04 9 -1 9 C-0.67 6.03 -0.34 3.06 0 0 Z " fill="#304048" transform="translate(89,128)"/>
<path d="M0 0 C0.99 0.99 1.98 1.98 3 3 C-0.87124194 9.45206991 -5.97229902 15.92538082 -13 19 C-12 16 -12 16 -10 14 C-10.33 13.01 -10.66 12.02 -11 11 C-9.5625 8.8125 -9.5625 8.8125 -8 7 C-6.68 7.33 -5.36 7.66 -4 8 C-4.12375 6.8553125 -4.12375 6.8553125 -4.25 5.6875 C-4 3 -4 3 -2 1.1875 C-1.34 0.795625 -0.68 0.40375 0 0 Z " fill="#141E20" transform="translate(293,273)"/>
<path d="M0 0 C-0.99 0.33 -1.98 0.66 -3 1 C-3.33 1.66 -3.66 2.32 -4 3 C-4.66 3 -5.32 3 -6 3 C-6 3.66 -6 4.32 -6 5 C-5.34 5.33 -4.68 5.66 -4 6 C-5.32 6 -6.64 6 -8 6 C-8.66 4.68 -9.32 3.36 -10 2 C-11.65 2.33 -13.3 2.66 -15 3 C-15 3.66 -15 4.32 -15 5 C-15.66 5 -16.32 5 -17 5 C-17.33 5.66 -17.66 6.32 -18 7 C-18.66 6.34 -19.32 5.68 -20 5 C-19.67 4.67 -19.34 4.34 -19 4 C-19.99 3.67 -20.98 3.34 -22 3 C-22 3.66 -22 4.32 -22 5 C-23.32 5.33 -24.64 5.66 -26 6 C-26 5.34 -26 4.68 -26 4 C-25.34 4 -24.68 4 -24 4 C-24 3.34 -24 2.68 -24 2 C-20.75456398 1.26955338 -17.50328617 0.56957212 -14.25 -0.125 C-13.32960937 -0.33253906 -12.40921875 -0.54007812 -11.4609375 -0.75390625 C-10.57148438 -0.94082031 -9.68203125 -1.12773437 -8.765625 -1.3203125 C-7.54020996 -1.58739014 -7.54020996 -1.58739014 -6.29003906 -1.85986328 C-3.59616008 -2.02471259 -2.27298276 -1.39208784 0 0 Z " fill="#101B1F" transform="translate(213,305)"/>
<path d="M0 0 C0 0.66 0 1.32 0 2 C-0.99 2 -1.98 2 -3 2 C-3 2.66 -3 3.32 -3 4 C-3.78375 4.309375 -4.5675 4.61875 -5.375 4.9375 C-7.92330128 5.92875038 -7.92330128 5.92875038 -10 7 C-10.66 6.67 -11.32 6.34 -12 6 C-13.94306657 5.95410661 -13.94306657 5.95410661 -16.1328125 6.12109375 C-16.93847656 6.16943359 -17.74414062 6.21777344 -18.57421875 6.26757812 C-19.41597656 6.32365234 -20.25773437 6.37972656 -21.125 6.4375 C-21.97449219 6.48970703 -22.82398437 6.54191406 -23.69921875 6.59570312 C-25.79979124 6.72551378 -27.89994191 6.8621174 -30 7 C-30 6.34 -30 5.68 -30 5 C-30.66 4.67 -31.32 4.34 -32 4 C-30.82824219 3.96261719 -29.65648438 3.92523438 -28.44921875 3.88671875 C-20.36142443 3.56892553 -12.82365213 3.15828372 -5.06640625 0.62109375 C-3 0 -3 0 0 0 Z " fill="#172125" transform="translate(147,208)"/>
<path d="M0 0 C2.375 0.3125 2.375 0.3125 5 1 C5.66 1.99 6.32 2.98 7 4 C5.75 6 5.75 6 4 8 C2.68 8 1.36 8 0 8 C-0.33 9.32 -0.66 10.64 -1 12 C-2.65 12.33 -4.3 12.66 -6 13 C-6 13.66 -6 14.32 -6 15 C-6.66 15 -7.32 15 -8 15 C-8 14.01 -8 13.02 -8 12 C-7.34 12 -6.68 12 -6 12 C-5.67 11.01 -5.34 10.02 -5 9 C-4.01 8.67 -3.02 8.34 -2 8 C-0.35179805 5.39757586 0 4.13751221 0 1 C0 0.67 0 0.34 0 0 Z " fill="#3A505C" transform="translate(160,113)"/>
<path d="M0 0 C3.74765815 1.33560158 6.6163817 2.9926468 9.75 5.4375 C10.52859375 6.03433594 11.3071875 6.63117187 12.109375 7.24609375 C14 9 14 9 15 12 C14.34 12 13.68 12 13 12 C13 11.34 13 10.68 13 10 C10.36 10.33 7.72 10.66 5 11 C2.37613513 7.93882432 2 7.26826873 2 3 C1.34 3 0.68 3 0 3 C0 2.01 0 1.02 0 0 Z " fill="#4E5658" transform="translate(262,29)"/>
<path d="M0 0 C2 3 2 3 1.625 5.1875 C1.41875 5.785625 1.2125 6.38375 1 7 C6.201526 10.23659194 6.201526 10.23659194 12 12 C12 12.66 12 13.32 12 14 C14.64 14.66 17.28 15.32 20 16 C14.96707178 17.25823206 12.55283458 15.71646144 8.1875 13.4375 C7.47207031 13.07269531 6.75664063 12.70789063 6.01953125 12.33203125 C1.08165461 9.74552444 -3.03931896 6.96068104 -7 3 C-5.1875 1.9375 -5.1875 1.9375 -3 1 C-2.01 1.33 -1.02 1.66 0 2 C0 1.34 0 0.68 0 0 Z " fill="#0D1316" transform="translate(86,216)"/>
<path d="M0 0 C4.17576168 0.68416434 7.88080407 2.01365009 11.8125 3.5625 C13.55466797 4.24505859 13.55466797 4.24505859 15.33203125 4.94140625 C16.21246094 5.29074219 17.09289062 5.64007813 18 6 C17.67 6.99 17.34 7.98 17 9 C15.33388095 9.042721 13.66617115 9.04063832 12 9 C11.67 8.67 11.34 8.34 11 8 C9.824375 8.0928125 9.824375 8.0928125 8.625 8.1875 C6 8 6 8 4.1875 6.125 C3 4 3 4 3 2 C2.01 1.67 1.02 1.34 0 1 C0 0.67 0 0.34 0 0 Z " fill="#111C24" transform="translate(108,295)"/>
<path d="M0 0 C0.66 0.66 1.32 1.32 2 2 C1.01 3.32 0.02 4.64 -1 6 C-2.11375 5.7525 -2.11375 5.7525 -3.25 5.5 C-6.19006578 4.88074304 -6.19006578 4.88074304 -10 5 C-10.99 5 -11.98 5 -13 5 C-12.67 4.01 -12.34 3.02 -12 2 C-7.94636242 0.20885782 -4.41301921 -0.40118356 0 0 Z " fill="#404A4D" transform="translate(126,9)"/>
<path d="M0 0 C1.41377341 2.63904371 2.37240135 5.07120629 3 8 C1.5459375 8.61875 1.5459375 8.61875 0.0625 9.25 C-3.14137349 10.61559751 -3.14137349 10.61559751 -3.625 13.0625 C-3.74875 13.701875 -3.8725 14.34125 -4 15 C-5.9375 16.3125 -5.9375 16.3125 -8 17 C-8.66 16.67 -9.32 16.34 -10 16 C-9.67 15.34 -9.34 14.68 -9 14 C-8.34 14 -7.68 14 -7 14 C-6.87625 13.360625 -6.7525 12.72125 -6.625 12.0625 C-6.41875 11.381875 -6.2125 10.70125 -6 10 C-5.34 9.67 -4.68 9.34 -4 9 C-3.13234482 7.14985526 -3.13234482 7.14985526 -2.4375 5 C-1.08991826 1.08991826 -1.08991826 1.08991826 0 0 Z " fill="#162226" transform="translate(283,253)"/>
<path d="M0 0 C0.66 0 1.32 0 2 0 C2.45439453 0.92232422 2.45439453 0.92232422 2.91796875 1.86328125 C6.15133077 8.17568194 6.15133077 8.17568194 12 12 C11.67 14.31 11.34 16.62 11 19 C7.75177521 16.22312644 5.87816944 12.60938618 3.8125 8.9375 C3.44447266 8.30005859 3.07644531 7.66261719 2.69726562 7.00585938 C0 2.25687036 0 2.25687036 0 0 Z " fill="#0D1519" transform="translate(20,239)"/>
<path d="M0 0 C3.77777778 1.55555556 3.77777778 1.55555556 5 4 C3.25705322 4.86846831 1.50531337 5.71930627 -0.25 6.5625 C-1.22453125 7.03816406 -2.1990625 7.51382813 -3.203125 8.00390625 C-6.09856297 9.03510273 -7.19966161 9.11346788 -10 8 C-9.01 7.67 -8.02 7.34 -7 7 C-6.896875 6.21625 -6.79375 5.4325 -6.6875 4.625 C-5.65464675 0.68137849 -3.95612748 0 0 0 Z " fill="#152224" transform="translate(151,224)"/>
<path d="M0 0 C0.99 0 1.98 0 3 0 C3 0.66 3 1.32 3 2 C3.66 2.33 4.32 2.66 5 3 C5.72159424 4.64363134 6.39351421 6.31050386 7 8 C7.66 7.67 8.32 7.34 9 7 C9 8.65 9 10.3 9 12 C9.66 12 10.32 12 11 12 C11 12.99 11 13.98 11 15 C12.98 15 14.96 15 17 15 C16.01 17.475 16.01 17.475 15 20 C10.58405979 16.83325369 7.74910763 13.27464355 4.6875 8.875 C4.23310547 8.24207031 3.77871094 7.60914063 3.31054688 6.95703125 C0 2.2675047 0 2.2675047 0 0 Z " fill="#0C1519" transform="translate(31,258)"/>
<path d="M0 0 C0 0.99 0 1.98 0 3 C0.99 3.66 1.98 4.32 3 5 C2.67 5.66 2.34 6.32 2 7 C-3.23272633 5.36041242 -8.15196636 3.61047965 -13 1 C-13 0.67 -13 0.34 -13 0 C-8.37078475 -1.0161692 -4.65537393 -0.83796731 0 0 Z " fill="#484F51" transform="translate(236,34)"/>
<path d="M0 0 C0.33 0 0.66 0 1 0 C1 13.86 1 27.72 1 42 C0.67 42 0.34 42 0 42 C-0.144375 40.88625 -0.28875 39.7725 -0.4375 38.625 C-0.78372035 35.17857953 -0.78372035 35.17857953 -2 33 C-2.70006922 22.25187848 -1.94822003 10.55968 0 0 Z " fill="#0E191D" transform="translate(28,146)"/>
<path d="M0 0 C0.70125 0.53625 1.4025 1.0725 2.125 1.625 C1.795 2.615 1.465 3.605 1.125 4.625 C-0.29202513 4.48269192 -1.7086096 4.33599254 -3.125 4.1875 C-4.30835938 4.06568359 -4.30835938 4.06568359 -5.515625 3.94140625 C-7.69864639 3.64865007 -9.7523182 3.20435581 -11.875 2.625 C-11.875 1.635 -11.875 0.645 -11.875 -0.375 C-10.885 -0.045 -9.895 0.285 -8.875 0.625 C-7.92625 0.25375 -6.9775 -0.1175 -6 -0.5 C-2.875 -1.375 -2.875 -1.375 0 0 Z " fill="#474E4F" transform="translate(212.875,26.375)"/>
<path d="M0 0 C2.31 0.66 4.62 1.32 7 2 C7.625 3.8125 7.625 3.8125 8 6 C7.01 7.485 7.01 7.485 6 9 C3.625 8.3125 3.625 8.3125 1 7 C-0.375 4.5 -0.375 4.5 -1 2 C-0.67 1.34 -0.34 0.68 0 0 Z " fill="#434B4D" transform="translate(280,72)"/>
<path d="M0 0 C0.8971875 0.5259375 0.8971875 0.5259375 1.8125 1.0625 C-1.20637244 4.54581435 -3.75659529 5.85407144 -8.1875 7.0625 C-8.8475 5.4125 -9.5075 3.7625 -10.1875 2.0625 C-8.8675 2.3925 -7.5475 2.7225 -6.1875 3.0625 C-5.8575 2.0725 -5.5275 1.0825 -5.1875 0.0625 C-2.1875 -0.9375 -2.1875 -0.9375 0 0 Z " fill="#111A1D" transform="translate(259.1875,304.9375)"/>
<path d="M0 0 C4.82419514 3.13572684 9.42284316 6.5148552 14 10 C10.89984991 10.85432111 9.05817494 11.18380965 6 10 C4.25 8.5625 4.25 8.5625 3 7 C3 6.34 3 5.68 3 5 C2.34 5 1.68 5 1 5 C0.67 3.35 0.34 1.7 0 0 Z " fill="#121B21" transform="translate(74,272)"/>
<path d="M0 0 C0.33 0.99 0.66 1.98 1 3 C-2.28571429 7.92857143 -2.28571429 7.92857143 -4 10 C-4.66 10 -5.32 10 -6 10 C-6.66 8.68 -7.32 7.36 -8 6 C-7.34 5.67 -6.68 5.34 -6 5 C-5.67 4.34 -5.34 3.68 -5 3 C-3.7124791 0.4249582 -2.85933002 0 0 0 Z " fill="#304752" transform="translate(184,69)"/>
<path d="M0 0 C3 2 3 2 3.765625 5.00390625 C3.92546875 6.17824219 4.0853125 7.35257813 4.25 8.5625 C4.50523437 10.32787109 4.50523437 10.32787109 4.765625 12.12890625 C4.88164062 13.55009766 4.88164062 13.55009766 5 15 C4 16 4 16 1.4375 16.0625 C0.633125 16.041875 -0.17125 16.02125 -1 16 C0 14 0 14 3 13 C2.71125 12.505 2.4225 12.01 2.125 11.5 C0.57405952 8.05346561 -0.21144587 4.70013862 -1 1 C-0.67 0.67 -0.34 0.34 0 0 Z " fill="#364245" transform="translate(329,129)"/>
<path d="M0 0 C1.10960573 3.32881718 0.9412896 3.87364252 -0.21484375 7.01171875 C-0.48876953 7.76904297 -0.76269531 8.52636719 -1.04492188 9.30664062 C-1.33947266 10.09232422 -1.63402344 10.87800781 -1.9375 11.6875 C-2.22818359 12.48478516 -2.51886719 13.28207031 -2.81835938 14.10351562 C-3.53739302 16.07201757 -4.26763703 18.03641812 -5 20 C-6.02205917 16.21090261 -6.35200029 12.94240326 -6 9 C-4.125 6.875 -4.125 6.875 -2 5 C-0.74563813 2.36777038 -0.74563813 2.36777038 0 0 Z " fill="#1C2427" transform="translate(38,111)"/>
<path d="M0 0 C-0.33 1.32 -0.66 2.64 -1 4 C-5.38585329 4.70173653 -9.55790643 5.10834375 -14 5 C-12.53698952 2.07397905 -10.58977236 1.90294791 -7.5625 0.8125 C-6.57378906 0.44769531 -5.58507812 0.08289063 -4.56640625 -0.29296875 C-2 -1 -2 -1 0 0 Z " fill="#36444A" transform="translate(106,106)"/>
<path d="M0 0 C5.80205656 5.64524422 5.80205656 5.64524422 8 9 C8 9.66 8 10.32 8 11 C7.34 11 6.68 11 6 11 C6 10.34 6 9.68 6 9 C4.576875 8.62875 4.576875 8.62875 3.125 8.25 C0 7 0 7 -1.375 4.875 C-1.58125 4.25625 -1.7875 3.6375 -2 3 C-1.34 2.01 -0.68 1.02 0 0 Z " fill="#0E181E" transform="translate(50,244)"/>
<path d="M0 0 C0.66 0.33 1.32 0.66 2 1 C1.45730469 1.44730469 0.91460937 1.89460938 0.35546875 2.35546875 C-3.56675732 5.66992646 -6.47357074 8.47902132 -9 13 C-9.99 13.33 -10.98 13.66 -12 14 C-12.66 13.34 -13.32 12.68 -14 12 C-13.07316406 11.21753906 -12.14632812 10.43507813 -11.19140625 9.62890625 C-9.98175093 8.60679439 -8.7721166 7.58465769 -7.5625 6.5625 C-6.64500977 5.7880957 -6.64500977 5.7880957 -5.70898438 4.99804688 C-2.78350052 2.5775409 -2.78350052 2.5775409 0 0 Z " fill="#0B1418" transform="translate(265,272)"/>
<path d="M0 0 C1.65 0.33 3.3 0.66 5 1 C4.01 1.33 3.02 1.66 2 2 C2.33 3.98 2.66 5.96 3 8 C1.68 8 0.36 8 -1 8 C-2.75 5.5 -2.75 5.5 -4 3 C-2.68 2.67 -1.36 2.34 0 2 C0 1.34 0 0.68 0 0 Z " fill="#363F40" transform="translate(251,128)"/>
<path d="M0 0 C3.47443075 0.56648327 4.98733887 1.64415973 7.25 4.3125 C7.77078125 4.90675781 8.2915625 5.50101563 8.828125 6.11328125 C10 8 10 8 10 12 C9.34 12 8.68 12 8 12 C8 11.01 8 10.02 8 9 C6.35 8.67 4.7 8.34 3 8 C2.814375 7.071875 2.814375 7.071875 2.625 6.125 C2.12802644 3.80879168 2.12802644 3.80879168 0 2 C0 1.34 0 0.68 0 0 Z " fill="#4B5254" transform="translate(291,55)"/>
<path d="M0 0 C1.32 0.99 2.64 1.98 4 3 C3.34 4.65 2.68 6.3 2 8 C-0.475 7.01 -0.475 7.01 -3 6 C-3.33 6.66 -3.66 7.32 -4 8 C-4 4.23398607 -2.60930438 2.60930438 0 0 Z " fill="#515D5D" transform="translate(285,48)"/>
<path d="M0 0 C1.65 0.33 3.3 0.66 5 1 C5.33 2.32 5.66 3.64 6 5 C3.03 5.66 0.06 6.32 -3 7 C-3.33 5.35 -3.66 3.7 -4 2 C-2.68 2.33 -1.36 2.66 0 3 C0 2.01 0 1.02 0 0 Z " fill="#3D4445" transform="translate(108,33)"/>
<path d="M0 0 C-0.125 2.3125 -0.125 2.3125 -1 5 C-3.9375 6.875 -3.9375 6.875 -7 8 C-7.66 7.67 -8.32 7.34 -9 7 C-8.8125 5.1875 -8.8125 5.1875 -8 3 C-5.09303401 0.85802506 -3.64478912 0 0 0 Z " fill="#364041" transform="translate(88,24)"/>
<path d="M0 0 C1.29047171 3.87141514 0.6542778 5.31547216 -1 9 C-3.5625 11.25 -3.5625 11.25 -6 13 C-6.33 13.66 -6.66 14.32 -7 15 C-7.66 14.67 -8.32 14.34 -9 14 C-6.03 9.38 -3.06 4.76 0 0 Z " fill="#101A1D" transform="translate(293,238)"/>
<path d="M0 0 C0.33 0.66 0.66 1.32 1 2 C0.0625 4.125 0.0625 4.125 -1 6 C-0.34 6.33 0.32 6.66 1 7 C0.67 7.99 0.34 8.98 0 10 C-0.99 9.67 -1.98 9.34 -3 9 C-3.99 11.97 -4.98 14.94 -6 18 C-7.35685993 13.92942022 -5.80868515 11.57910733 -4.125 7.875 C-3.70154297 6.90626953 -3.70154297 6.90626953 -3.26953125 5.91796875 C-1.16870301 1.16870301 -1.16870301 1.16870301 0 0 Z " fill="#181D21" transform="translate(20,95)"/>
<path d="M0 0 C3 4.03448276 3 4.03448276 3 6 C-3.4 5.50769231 -3.4 5.50769231 -6.4375 2.9375 C-7.2109375 1.9784375 -7.2109375 1.9784375 -8 1 C-4.95729435 -0.01423522 -3.15860793 -0.47379119 0 0 Z " fill="#0B141A" transform="translate(170,274)"/>
<path d="M0 0 C2 1 4 2 6 3 C5.34 5.64 4.68 8.28 4 11 C1.99952977 8.45394698 0.17427215 6.0335364 -1 3 C-0.67 2.01 -0.34 1.02 0 0 Z " fill="#1E2A2C" transform="translate(329,192)"/>
<path d="M0 0 C6.93 0 13.86 0 21 0 C15.28568654 2.85715673 12.58381266 3.13924815 6.25 2.0625 C5.07953125 1.86785156 3.9090625 1.67320312 2.703125 1.47265625 C1.81109375 1.31667969 0.9190625 1.16070312 0 1 C0 0.67 0 0.34 0 0 Z " fill="#181E20" transform="translate(217,183)"/>
<path d="M0 0 C1.32 0.33 2.64 0.66 4 1 C3.125 4.875 3.125 4.875 2 6 C1.92773498 7.85287502 1.9161878 9.70833878 1.9375 11.5625 C1.94652344 12.57441406 1.95554688 13.58632812 1.96484375 14.62890625 C1.97644531 15.41136719 1.98804688 16.19382812 2 17 C1.34 17 0.68 17 0 17 C0 11.39 0 5.78 0 0 Z " fill="#3C4549" transform="translate(195,106)"/>
<path d="M0 0 C0.7425 0.37125 1.485 0.7425 2.25 1.125 C4.94283647 2.29515863 4.94283647 2.29515863 7.3125 1.125 C7.869375 0.75375 8.42625 0.3825 9 0 C9.33 0.99 9.66 1.98 10 3 C9.67 3.66 9.34 4.32 9 5 C10.32 5.66 11.64 6.32 13 7 C12.01 7.495 12.01 7.495 11 8 C8.3984375 6.6015625 8.3984375 6.6015625 5.375 4.625 C4.37210937 3.97789062 3.36921875 3.33078125 2.3359375 2.6640625 C1.56507812 2.11492187 0.79421875 1.56578125 0 1 C0 0.67 0 0.34 0 0 Z " fill="#0B1517" transform="translate(78,305)"/>
<path d="M0 0 C2.5 2.3125 2.5 2.3125 5 5 C5 5.99 5 6.98 5 8 C2 8 2 8 -1 6 C-0.67 4.02 -0.34 2.04 0 0 Z " fill="#142023" transform="translate(58,255)"/>
<path d="M0 0 C0.66 0 1.32 0 2 0 C4 2 4 2 5 5 C4.87890625 7.26171875 4.87890625 7.26171875 4.5625 9.6875 C4.46066406 10.49574219 4.35882812 11.30398437 4.25390625 12.13671875 C4.17011719 12.75160156 4.08632812 13.36648437 4 14 C1.37548383 11.37548383 1.4167132 9.5122172 0.875 5.875 C0.70742187 4.77929688 0.53984375 3.68359375 0.3671875 2.5546875 C0.24601563 1.71164063 0.12484375 0.86859375 0 0 Z " fill="#141E22" transform="translate(11,214)"/>
<path d="M0 0 C0.99 0.33 1.98 0.66 3 1 C3.87890625 2.99609375 3.87890625 2.99609375 4.5625 5.4375 C5.58507259 9.09858228 5.58507259 9.09858228 8 12 C8.625 14.125 8.625 14.125 9 16 C4.76069809 12.23173163 2.00165951 8.34521366 0 3 C0 2.01 0 1.02 0 0 Z " fill="#10171A" transform="translate(63,194)"/>
<path d="M0 0 C-4.52872278 3.41964781 -8.62087091 6.13799378 -14 8 C-14.99 7.67 -15.98 7.34 -17 7 C-14.73595458 5.63319847 -12.46498979 4.28155555 -10.1875 2.9375 C-9.54490234 2.54755859 -8.90230469 2.15761719 -8.24023438 1.75585938 C-3.33984375 -1.11328125 -3.33984375 -1.11328125 0 0 Z " fill="#0D171B" transform="translate(263,196)"/>
<path d="M0 0 C2.31 0 4.62 0 7 0 C7 0.66 7 1.32 7 2 C6.01 2.495 6.01 2.495 5 3 C4.67 3.99 4.34 4.98 4 6 C2.68 6 1.36 6 0 6 C0 4.02 0 2.04 0 0 Z " fill="#444A4C" transform="translate(128,25)"/>
<path d="M0 0 C0.66 0.99 1.32 1.98 2 3 C1.01 4.485 1.01 4.485 0 6 C-2.375 5.6875 -2.375 5.6875 -5 5 C-5.66 4.01 -6.32 3.02 -7 2 C-3.98968256 1.06576355 -3.13349732 0.95550089 0 2 C0 1.34 0 0.68 0 0 Z " fill="#162024" transform="translate(86,216)"/>
<path d="M0 0 C0.78375 0.185625 1.5675 0.37125 2.375 0.5625 C4.97089775 1.25962266 4.97089775 1.25962266 7 0 C7.33 1.98 7.66 3.96 8 6 C4.17902761 5.46930939 1.93828597 4.50298434 -1 2 C-0.67 1.34 -0.34 0.68 0 0 Z " fill="#0C1517" transform="translate(96,313)"/>
<path d="M0 0 C1.32 0.66 2.64 1.32 4 2 C3.01 2.33 2.02 2.66 1 3 C0.67 3.66 0.34 4.32 0 5 C-0.66 5 -1.32 5 -2 5 C-2 5.66 -2 6.32 -2 7 C-1.34 7.33 -0.68 7.66 0 8 C-1.32 8 -2.64 8 -4 8 C-4.66 6.35 -5.32 4.7 -6 3 C-4.02 2.67 -2.04 2.34 0 2 C0 1.34 0 0.68 0 0 Z " fill="#16222A" transform="translate(209,303)"/>
<path d="M0 0 C2 3 2 3 2 5 C3.9600281 6.63676257 3.9600281 6.63676257 6 8 C5.67 8.66 5.34 9.32 5 10 C2.03 7.69 -0.94 5.38 -4 3 C-2.68 2.01 -1.36 1.02 0 0 Z " fill="#0A1215" transform="translate(62,288)"/>
<path d="M0 0 C0 3.41321235 -0.66867466 4.39472885 -2.5 7.1875 C-2.9640625 7.90292969 -3.428125 8.61835938 -3.90625 9.35546875 C-4.2671875 9.89816406 -4.628125 10.44085938 -5 11 C-6.32667306 8.34665389 -6.49020734 6.94124405 -6 4 C-3 1.6875 -3 1.6875 0 0 Z " fill="#141D24" transform="translate(312,252)"/>
<path d="M0 0 C0.33 0 0.66 0 1 0 C2.61561666 5.25075414 1.33923713 8.30515728 -0.89453125 13.046875 C-2 15 -2 15 -4 17 C-2.91103333 11.24237834 -1.70663707 5.60752181 0 0 Z " fill="#0F181C" transform="translate(308,199)"/>
<path d="M0 0 C3 1 3 1 6 5 C2.04 5 -1.92 5 -6 5 C-6 4.67 -6 4.34 -6 4 C-4.35 4 -2.7 4 -1 4 C-0.67 2.68 -0.34 1.36 0 0 Z " fill="#1A2324" transform="translate(223,121)"/>
<path d="M0 0 C0.33 0.66 0.66 1.32 1 2 C0.24606792 3.73732175 -0.51201316 5.47322122 -1.30859375 7.19140625 C-2.16366428 9.10540826 -2.16366428 9.10540826 -2 11.75 C-2 14 -2 14 -3.5 15.640625 C-3.995 16.08921875 -4.49 16.5378125 -5 17 C-4.69343615 10.37822074 -3.25711277 5.77874846 0 0 Z " fill="#14181B" transform="translate(64,137)"/>
<path d="M0 0 C3 1 3 1 5 4 C4.625 6.1875 4.625 6.1875 4 8 C3.67 7.34 3.34 6.68 3 6 C1.35 6 -0.3 6 -2 6 C-2 5.34 -2 4.68 -2 4 C-1.34 4 -0.68 4 0 4 C-0.33 3.01 -0.66 2.02 -1 1 C-0.67 0.67 -0.34 0.34 0 0 Z " fill="#444C4F" transform="translate(306,73)"/>
<path d="M0 0 C3.3 0 6.6 0 10 0 C9.67 1.32 9.34 2.64 9 4 C5.625 3.6875 5.625 3.6875 2 3 C1.34 2.01 0.68 1.02 0 0 Z " fill="#4B5355" transform="translate(191,4)"/>
<path d="M0 0 C0.66 0.33 1.32 0.66 2 1 C1.67 1.66 1.34 2.32 1 3 C1.99 3.33 2.98 3.66 4 4 C2.04174127 4.02694851 0.08337774 4.04637218 -1.875 4.0625 C-2.96554688 4.07410156 -4.05609375 4.08570313 -5.1796875 4.09765625 C-8 4 -8 4 -10 3 C-9.67 2.34 -9.34 1.68 -9 1 C-7.88625 1.20625 -6.7725 1.4125 -5.625 1.625 C-3.830625 1.810625 -3.830625 1.810625 -2 2 C-1.34 1.34 -0.68 0.68 0 0 Z " fill="#0A1415" transform="translate(155,328)"/>
<path d="M0 0 C-5.01372252 3.52913975 -8.83543922 5.61471495 -15 6 C-11.57875892 3.02500775 -4.44240633 -2.22120316 0 0 Z " fill="#070F14" transform="translate(239,293)"/>
<path d="M0 0 C0.36923077 4.55384615 0.36923077 4.55384615 -1.5 6.8125 C-1.995 7.204375 -2.49 7.59625 -3 8 C-3 7.34 -3 6.68 -3 6 C-3.66 6 -4.32 6 -5 6 C-5 4.68 -5 3.36 -5 2 C-2 0 -2 0 0 0 Z " fill="#1B252A" transform="translate(62,169)"/>
<path d="M0 0 C1.65 0.33 3.3 0.66 5 1 C1.71195019 3.91227269 -0.59885603 5.49701212 -5 6 C-4.34 5.67 -3.68 5.34 -3 5 C-3 4.34 -3 3.68 -3 3 C-2.34 3 -1.68 3 -1 3 C-0.67 2.01 -0.34 1.02 0 0 Z " fill="#0A1214" transform="translate(244,312)"/>
<path d="M0 0 C0.99 0 1.98 0 3 0 C3 0.66 3 1.32 3 2 C3.66 2.33 4.32 2.66 5 3 C6.3749149 5.90259811 7 7.76138705 7 11 C5.82750647 9.54634731 4.66216184 8.08692581 3.5 6.625 C2.52546875 5.40683594 2.52546875 5.40683594 1.53125 4.1640625 C0 2 0 2 0 0 Z " fill="#070E10" transform="translate(31,258)"/>
<path d="M0 0 C2.4375 0.8125 2.4375 0.8125 5 2 C5.33 2.99 5.66 3.98 6 5 C3.625 5.625 3.625 5.625 1 6 C0.34 5.34 -0.32 4.68 -1 4 C-0.625 1.875 -0.625 1.875 0 0 Z M1 3 C2 5 2 5 2 5 Z " fill="#202E2F" transform="translate(306,248)"/>
<path d="M0 0 C5.75 0.75 5.75 0.75 8 3 C6.02 3.99 4.04 4.98 2 6 C1.34 4.02 0.68 2.04 0 0 Z " fill="#161E23" transform="translate(106,209)"/>
<path d="M0 0 C0 0.99 0 1.98 0 3 C-0.66 3.66 -1.32 4.32 -2 5 C-2.64767793 7.57061311 -2.64767793 7.57061311 -3 10 C-5.475 9.01 -5.475 9.01 -8 8 C-5.33333333 5.33333333 -2.66666667 2.66666667 0 0 Z " fill="#192328" transform="translate(253,173)"/>
<path d="M0 0 C0.66 0.66 1.32 1.32 2 2 C1.525625 2.350625 1.05125 2.70125 0.5625 3.0625 C-1.65942465 5.81768657 -1.5527537 8.54981423 -2 12 C-2.99 12.495 -2.99 12.495 -4 13 C-3.91306859 11.20741442 -3.80489496 9.41584856 -3.6875 7.625 C-3.60048828 6.12839844 -3.60048828 6.12839844 -3.51171875 4.6015625 C-3.34285156 3.74304688 -3.17398438 2.88453125 -3 2 C-2.01 1.34 -1.02 0.68 0 0 Z " fill="#1F2527" transform="translate(61,151)"/>
<path d="M0 0 C0.66 1.98 1.32 3.96 2 6 C1.01 6.495 1.01 6.495 0 7 C-1.65 5.68 -3.3 4.36 -5 3 C-2.25 0 -2.25 0 0 0 Z " fill="#384244" transform="translate(325,105)"/>
<path d="M0 0 C4.75 0.75 4.75 0.75 7 3 C8.98821313 3.39764263 10.98944339 3.73775349 13 4 C13 4.33 13 4.66 13 5 C5.73846154 5.61538462 5.73846154 5.61538462 2 2.5 C1.34 1.675 0.68 0.85 0 0 Z " fill="#0C131B" transform="translate(161,78)"/>
<path d="M0 0 C2.28015185 2.17157319 4.36317336 4.29923604 6 7 C5.6875 9.25 5.6875 9.25 5 11 C0 4.63636364 0 4.63636364 0 0 Z " fill="#0A1315" transform="translate(15,228)"/>
<path d="M0 0 C0 0.66 0 1.32 0 2 C-0.99 2 -1.98 2 -3 2 C-3 2.66 -3 3.32 -3 4 C-3.99 4.33 -4.98 4.66 -6 5 C-6 4.34 -6 3.68 -6 3 C-7.65 3.33 -9.3 3.66 -11 4 C-7.88789178 0.88789178 -4.34860953 0 0 0 Z " fill="#0F181A" transform="translate(147,208)"/>
<path d="M0 0 C2.31 1.98 4.62 3.96 7 6 C3.86650268 7.04449911 3.01031744 6.93423645 0 6 C0 5.34 0 4.68 0 4 C-0.66 3.67 -1.32 3.34 -2 3 C-1.34 2.01 -0.68 1.02 0 0 Z " fill="#1B272D" transform="translate(86,193)"/>
<path d="M0 0 C0.33 0 0.66 0 1 0 C1.144375 0.94875 1.28875 1.8975 1.4375 2.875 C1.82935399 5.8934494 1.82935399 5.8934494 3 8 C2.01 8 1.02 8 0 8 C0 8.66 0 9.32 0 10 C-2 9 -2 9 -3 6 C-2.34 5.34 -1.68 4.68 -1 4 C-0.3574765 1.93125966 -0.3574765 1.93125966 0 0 Z " fill="#1E292B" transform="translate(27,181)"/>
<path d="M0 0 C1.98 0.99 1.98 0.99 4 2 C3.34 4.97 2.68 7.94 2 11 C1.34 9.68 0.68 8.36 0 7 C0.33 6.01 0.66 5.02 1 4 C0.61067144 1.85744207 0.61067144 1.85744207 0 0 Z " fill="#252F32" transform="translate(25,144)"/>
<path d="M0 0 C0.33 0.66 0.66 1.32 1 2 C1.66 2.33 2.32 2.66 3 3 C3 4.32 3 5.64 3 7 C2.01 7.33 1.02 7.66 0 8 C-0.66 5.69 -1.32 3.38 -2 1 C-1.34 0.67 -0.68 0.34 0 0 Z " fill="#394449" transform="translate(275,136)"/>
<path d="M0 0 C3.3 0 6.6 0 10 0 C9.01 1.485 9.01 1.485 8 3 C7.34 2.67 6.68 2.34 6 2 C3.99199544 2.28112064 1.98985949 2.61067967 0 3 C0 2.01 0 1.02 0 0 Z " fill="#3E4849" transform="translate(136,5)"/>
<path d="M0 0 C0.66 0 1.32 0 2 0 C2 0.99 2 1.98 2 3 C2.66 2.34 3.32 1.68 4 1 C4.99 1 5.98 1 7 1 C6.67 2.65 6.34 4.3 6 6 C2.34683329 4.75023244 1.21934164 4.32901247 -1 1 C-0.67 0.67 -0.34 0.34 0 0 Z " fill="#0D1618" transform="translate(72,299)"/>
<path d="M0 0 C0.94875 0.350625 1.8975 0.70125 2.875 1.0625 C1.125 4.9375 1.125 4.9375 -1.125 6.0625 C-1.125 4.7425 -1.125 3.4225 -1.125 2.0625 C-2.445 1.4025 -3.765 0.7425 -5.125 0.0625 C-3.125 -0.9375 -3.125 -0.9375 0 0 Z " fill="#131E20" transform="translate(301.125,264.9375)"/>
<path d="M0 0 C0.66 0 1.32 0 2 0 C2.6875 1.8125 2.6875 1.8125 3 4 C1.8125 5.8125 1.8125 5.8125 0 7 C-2.1875 6.6875 -2.1875 6.6875 -4 6 C-3.67 5.34 -3.34 4.68 -3 4 C-2.34 4 -1.68 4 -1 4 C-0.67 2.68 -0.34 1.36 0 0 Z " fill="#1B282C" transform="translate(277,263)"/>
<path d="M0 0 C2.31 1.98 4.62 3.96 7 6 C6.01 6.66 5.02 7.32 4 8 C3.67 7.34 3.34 6.68 3 6 C2.34 6 1.68 6 1 6 C0.67 4.02 0.34 2.04 0 0 Z " fill="#121C23" transform="translate(64,262)"/>
<path d="M0 0 C0.33 0.66 0.66 1.32 1 2 C-0.4375 4.625 -0.4375 4.625 -2 7 C-3.32 5.68 -4.64 4.36 -6 3 C-5.67 2.34 -5.34 1.68 -5 1 C-3.68 1 -2.36 1 -1 1 C-0.67 0.67 -0.34 0.34 0 0 Z " fill="#18262B" transform="translate(319,240)"/>
<path d="M0 0 C1.41687119 4.25061356 0.19320039 6.71851625 -1 11 C-1.99 10.67 -2.98 10.34 -4 10 C-2.8905928 6.51329166 -1.73662334 3.22515763 0 0 Z " fill="#111B1E" transform="translate(298,228)"/>
<path d="M0 0 C0.66 0 1.32 0 2 0 C1.52060632 4.71403788 1.03165952 8.66579301 -1 13 C-2.12758089 9.61725734 -1.81750262 8.23221777 -1.0625 4.8125 C-0.86785156 3.91144531 -0.67320312 3.01039063 -0.47265625 2.08203125 C-0.23869141 1.05142578 -0.23869141 1.05142578 0 0 Z " fill="#11191D" transform="translate(329,209)"/>
<path d="M0 0 C0.99 0.33 1.98 0.66 3 1 C3.6875 3.0625 3.6875 3.0625 4 5 C2.1875 5.625 2.1875 5.625 0 6 C-0.99 5.34 -1.98 4.68 -3 4 C-2.34 3.67 -1.68 3.34 -1 3 C-0.67 2.01 -0.34 1.02 0 0 Z " fill="#172228" transform="translate(220,201)"/>
<path d="M0 0 C0.185625 0.8353125 0.185625 0.8353125 0.375 1.6875 C1.05976855 4.22114364 1.99133763 6.57921032 3 9 C2.34 9 1.68 9 1 9 C0.67 9.66 0.34 10.32 0 11 C-2.21538462 5.70769231 -2.21538462 5.70769231 -1.125 2.125 C-0.75375 1.42375 -0.3825 0.7225 0 0 Z " fill="#132022" transform="translate(5,160)"/>
<path d="M0 0 C0.33 0.99 0.66 1.98 1 3 C-2 5 -2 5 -4.1875 4.625 C-4.785625 4.41875 -5.38375 4.2125 -6 4 C-2.25 0 -2.25 0 0 0 Z " fill="#353E43" transform="translate(110,122)"/>
<path d="M0 0 C0.66 0.99 1.32 1.98 2 3 C1.34 4.32 0.68 5.64 0 7 C-0.66 7 -1.32 7 -2 7 C-2 5.68 -2 4.36 -2 3 C-2.66 3 -3.32 3 -4 3 C-4 2.34 -4 1.68 -4 1 C-2.68 0.67 -1.36 0.34 0 0 Z " fill="#455152" transform="translate(243,105)"/>
<path d="M0 0 C1.65 1.65 3.3 3.3 5 5 C4.67 5.66 4.34 6.32 4 7 C2.0625 6.25 2.0625 6.25 0 5 C-0.8125 2.9375 -0.8125 2.9375 -1 1 C-0.67 0.67 -0.34 0.34 0 0 Z " fill="#3A4244" transform="translate(291,87)"/>
<path d="M0 0 C1.32 0.66 2.64 1.32 4 2 C3.34 2 2.68 2 2 2 C2 2.66 2 3.32 2 4 C2.99 4.33 3.98 4.66 5 5 C4.67 5.66 4.34 6.32 4 7 C2.0625 6.1875 2.0625 6.1875 0 5 C-0.33 4.01 -0.66 3.02 -1 2 C-0.67 1.34 -0.34 0.68 0 0 Z " fill="#394043" transform="translate(274,66)"/>
<path d="M0 0 C2 3 2 3 2 7 C0.68 7 -0.64 7 -2 7 C-2 5.02 -2 3.04 -2 1 C-1.34 0.67 -0.68 0.34 0 0 Z " fill="#1C2125" transform="translate(195,232)"/>
<path d="M0 0 C0.33 0 0.66 0 1 0 C0.67 2.64 0.34 5.28 0 8 C-0.33 7.01 -0.66 6.02 -1 5 C-1.99 5.33 -2.98 5.66 -4 6 C-3.67 4.68 -3.34 3.36 -3 2 C-2.01 2 -1.02 2 0 2 C0 1.34 0 0.68 0 0 Z " fill="#1D262A" transform="translate(30,136)"/>
<path d="M0 0 C-0.33 0.99 -0.66 1.98 -1 3 C-2.98 3 -4.96 3 -7 3 C-7.33 2.34 -7.66 1.68 -8 1 C-5.29120665 -0.35439668 -2.99066732 -0.06501451 0 0 Z " fill="#455052" transform="translate(164,3)"/>
<path d="M0 0 C2 1 2 1 3 3 C1 5 1 5 -2 7 C-2 5 -2 3 -2 1 C-1.34 0.67 -0.68 0.34 0 0 Z " fill="#3F484B" transform="translate(300,96)"/>
<path d="M0 0 C0.66 0.33 1.32 0.66 2 1 C2 2.65 2 4.3 2 6 C1.01 6 0.02 6 -1 6 C-1 2 -1 2 0 0 Z " fill="#142228" transform="translate(50,244)"/>
<path d="M0 0 C0.99 0.99 1.98 1.98 3 3 C2.01 4.485 2.01 4.485 1 6 C-0.32 5.67 -1.64 5.34 -3 5 C-3 3 -3 3 -1.5 1.375 C-1.005 0.92125 -0.51 0.4675 0 0 Z " fill="#19252A" transform="translate(93,200)"/>
<path d="M0 0 C0.33 0.66 0.66 1.32 1 2 C1.66 2 2.32 2 3 2 C2.67 3.65 2.34 5.3 2 7 C-0.475 6.01 -0.475 6.01 -3 5 C-2.01 3.35 -1.02 1.7 0 0 Z " fill="#323C41" transform="translate(333,145)"/>
<path d="M0 0 C3 1 3 1 4.1875 3.0625 C4.455625 3.701875 4.72375 4.34125 5 5 C3.68 5.33 2.36 5.66 1 6 C1 5.34 1 4.68 1 4 C0.34 3.67 -0.32 3.34 -1 3 C-0.67 2.01 -0.34 1.02 0 0 Z " fill="#354245" transform="translate(235,122)"/>
<path d="M0 0 C0.33 1.32 0.66 2.64 1 4 C-2 5 -2 5 -5 4 C-4.67 3.01 -4.34 2.02 -4 1 C-1.9375 0.3125 -1.9375 0.3125 0 0 Z " fill="#374345" transform="translate(142,122)"/>
<path d="M0 0 C2.64 0 5.28 0 8 0 C7.34 1.32 6.68 2.64 6 4 C1.125 2.25 1.125 2.25 0 0 Z " fill="#394143" transform="translate(280,77)"/>
<path d="M0 0 C1.32 0 2.64 0 4 0 C2.95125002 2.62187494 2.35068687 3.79371361 -0.125 5.25 C-0.74375 5.4975 -1.3625 5.745 -2 6 C-1.125 1.125 -1.125 1.125 0 0 Z " fill="#47504F" transform="translate(260,49)"/>
<path d="M0 0 C0.99 0.33 1.98 0.66 3 1 C2.67 2.65 2.34 4.3 2 6 C0.68 5.01 -0.64 4.02 -2 3 C-1.34 2.01 -0.68 1.02 0 0 Z " fill="#3B4748" transform="translate(76,34)"/>
<path d="M0 0 C-1.32 0.99 -2.64 1.98 -4 3 C-4.66 2.67 -5.32 2.34 -6 2 C-6.33 2.66 -6.66 3.32 -7 4 C-7.66 3.67 -8.32 3.34 -9 3 C-9 2.34 -9 1.68 -9 1 C-5.8035914 -0.06546953 -3.34252724 -0.07427838 0 0 Z " fill="#162328" transform="translate(145,307)"/>
<path d="M0 0 C1 2 1 2 0.375 4 C-1.39265071 6.57112831 -3.07589059 7.07659703 -6 8 C-4.02 5.36 -2.04 2.72 0 0 Z " fill="#0A1113" transform="translate(280,257)"/>
<path d="M0 0 C0.33 0 0.66 0 1 0 C2.20568053 4.67201205 2.09382426 9.21496292 2 14 C1.67 14 1.34 14 1 14 C0.855625 12.88625 0.71125 11.7725 0.5625 10.625 C0.21627965 7.17857953 0.21627965 7.17857953 -1 5 C-0.72057545 3.32345271 -0.39171753 1.65391846 0 0 Z " fill="#081012" transform="translate(27,174)"/>
<path d="M0 0 C2.5 1.375 2.5 1.375 5 3 C5 3.66 5 4.32 5 5 C4.01 4.67 3.02 4.34 2 4 C1.01 4.33 0.02 4.66 -1 5 C-0.67 3.35 -0.34 1.7 0 0 Z " fill="#475356" transform="translate(314,91)"/>
<path d="M0 0 C0.99 0.33 1.98 0.66 3 1 C4.1875 4.0625 4.1875 4.0625 5 7 C3.0625 6.3125 3.0625 6.3125 1 5 C0.25 2.375 0.25 2.375 0 0 Z " fill="#394144" transform="translate(314,87)"/>
</svg>
